<?xml version="1.0" encoding="UTF-8" standalone="no"?>
<!-- Created with Inkscape (http://www.inkscape.org/) -->

<svg
   width="8.4154263mm"
   height="8.4419889mm"
   viewBox="0 0 8.4154263 8.4419889"
   version="1.1"
   id="svg1"
   sodipodi:docname="MCS_logo_32.svg"
   inkscape:version="1.3.2 (091e20e, 2023-11-25, custom)"
   inkscape:export-filename="..\..\..\Documents\Mayteck\mayteckcs.com\images\MCS_logo_48.svg"
   inkscape:export-xdpi="96"
   inkscape:export-ydpi="96"
   xmlns:inkscape="http://www.inkscape.org/namespaces/inkscape"
   xmlns:sodipodi="http://sodipodi.sourceforge.net/DTD/sodipodi-0.dtd"
   xmlns:xlink="http://www.w3.org/1999/xlink"
   xmlns="http://www.w3.org/2000/svg"
   xmlns:svg="http://www.w3.org/2000/svg">
  <sodipodi:namedview
     id="namedview1"
     pagecolor="#ffffff"
     bordercolor="#000000"
     borderopacity="0.25"
     inkscape:showpageshadow="2"
     inkscape:pageopacity="0.0"
     inkscape:pagecheckerboard="true"
     inkscape:deskcolor="#d1d1d1"
     inkscape:document-units="mm"
     inkscape:zoom="1.9057239"
     inkscape:cx="116.49117"
     inkscape:cy="69.265018"
     inkscape:window-width="1350"
     inkscape:window-height="1212"
     inkscape:window-x="3994"
     inkscape:window-y="17"
     inkscape:window-maximized="0"
     inkscape:current-layer="svg1"
     inkscape:export-bgcolor="#ffffff00" />
  <defs
     id="defs1">
    <linearGradient
       id="swatch10"
       inkscape:swatch="solid">
      <stop
         style="stop-color:#000000;stop-opacity:1;"
         offset="0"
         id="stop11" />
    </linearGradient>
    <linearGradient
       id="linearGradient5"
       inkscape:collect="always">
      <stop
         style="stop-color:#003366;stop-opacity:1;"
         offset="0"
         id="stop6" />
      <stop
         style="stop-color:#0000ff;stop-opacity:1;"
         offset="0.32920793"
         id="stop8" />
      <stop
         style="stop-color:#00386b;stop-opacity:1;"
         offset="0.50495052"
         id="stop10" />
      <stop
         style="stop-color:#0000ff;stop-opacity:1;"
         offset="0.6707921"
         id="stop9" />
      <stop
         style="stop-color:#003366;stop-opacity:1;"
         offset="1"
         id="stop7" />
    </linearGradient>
    <linearGradient
       inkscape:collect="always"
       xlink:href="#linearGradient5"
       id="linearGradient7"
       x1="0.77877802"
       y1="1748.6896"
       x2="2947.1831"
       y2="1748.6896"
       gradientUnits="userSpaceOnUse"
       gradientTransform="matrix(0.00281898,0,0,0.00239698,0.05314885,0.03729856)" />
  </defs>
  <g
     id="layer1"
     transform="matrix(0.01073735,0,0,0.00905529,-1.0793619,-0.31749357)">
    <path
       id="path14"
       style="fill:none;fill-opacity:1;stroke:#000000;stroke-width:4.99969;stroke-dasharray:none;stroke-opacity:1"
       d="m 386.53773,38.783405 -29.4341,12.117107 c -575.55829,410.575838 6.3601,927.726888 8.67848,911.397868 3.59081,-25.2911 -150.90517,-197.45533 -23.89361,-435.63036 128.96673,-241.84142 149.91501,142.84421 149.91501,142.84421 0,0 28.16296,-369.69798 158.64047,-143.50515 130.47753,226.19284 -41.4618,439.13663 -41.4618,439.13663 0,0 261.22232,-143.93191 272.47033,-485.35507 C 892.70018,138.3655 608.12455,40.206059 608.12455,40.206059 c 0,0 2.71548,204.698801 -108.64034,214.656971 C 388.12843,264.82121 386.53773,38.783405 386.53773,38.783405 Z" />
  </g>
  <path
     style="fill:url(#linearGradient7);fill-opacity:1;stroke:#ffffff;stroke-width:0.0291593;stroke-dasharray:none;stroke-opacity:1"
     d="M 2.7933699,8.3770553 C 2.6734752,8.3083902 2.4026932,8.0938003 2.1871158,7.8966093 1.0941484,6.8968591 0.36049514,5.736893 0.14136065,4.6621005 0.08421076,4.3817964 0.0661705,4.1765855 0.07228627,3.8763688 0.08066831,3.4649056 0.14560545,3.1391166 0.29574898,2.755259 0.65484987,1.8371798 1.4261583,1.0075571 2.6220386,0.25309104 c 0.1416433,-0.089361 0.1511962,-0.0940539 0.291928,-0.14341565 0.080021,-0.02806743 0.1487411,-0.0510316 0.1527108,-0.0510316 0.00397,0 0.00722,0.02696339 0.00722,0.05991862 0,0.13686651 0.038831,0.45231937 0.080194,0.65147984 C 3.3074896,1.508647 3.6264463,1.9353358 4.074793,2.0017239 4.165401,2.0151399 4.349843,2.0061139 4.4457631,1.9835829 4.5492393,1.9592694 4.65894,1.9128356 4.7488502,1.8552952 5.1452026,1.6016366 5.3924106,1.020839 5.4424013,0.2258482 5.4475668,0.14366897 5.4532862,0.07515227 5.4551026,0.07358882 5.4611868,0.06835962 5.612054,0.12429858 5.75319,0.18411403 6.491302,0.49693467 7.1433373,0.98760789 7.5861779,1.563483 8.1893237,2.3478206 8.4362568,3.3063459 8.3156806,4.3952086 8.2309615,5.1602615 7.9756052,5.8749253 7.5571734,6.5180376 7.1354015,7.1662818 6.541427,7.7508975 5.8585506,8.1898955 5.7168342,8.2810007 5.5193227,8.3945202 5.512549,8.38876 5.5100292,8.3865933 5.5359856,8.3500722 5.5702602,8.3075776 5.8266672,7.9896912 6.0521425,7.5985997 6.1972934,7.2199719 6.5426281,6.3191598 6.4853198,5.4527821 6.0282064,4.6637595 5.8515199,4.3587817 5.6514702,4.1058362 5.4684401,3.9559831 5.3356451,3.847259 5.2246281,3.7959616 5.1068334,3.7888964 4.9992018,3.7824464 4.9170621,3.8098944 4.823404,3.8836238 4.5558756,4.0942295 4.3432467,4.6646563 4.2243669,5.4906797 c -0.011798,0.082 -0.022639,0.1500944 -0.024082,0.1513224 -0.00144,0.00124 -0.00514,-0.029042 -0.00822,-0.067266 C 4.1757253,5.37193 4.1162699,4.9952926 4.0648642,4.7689305 3.9168468,4.117141 3.716147,3.7796172 3.4513982,3.7372402 3.1934331,3.695949 2.8759509,3.9815403 2.533996,4.5624895 2.2126752,5.1083818 2.0612912,5.6302401 2.061445,6.1914862 c 1.403e-4,0.5149052 0.1343862,1.0062399 0.4232967,1.5492564 0.034994,0.065773 0.1249743,0.2220438 0.199956,0.3472687 0.1278638,0.2135453 0.1687513,0.2919688 0.1616568,0.310067 -0.00163,0.00418 -0.025484,-0.00528 -0.052983,-0.021022 z"
     id="path2" />
</svg>
